<svg version="1.1" id="Layer_1" xmlns="http://www.w3.org/2000/svg" xmlns:xlink="http://www.w3.org/1999/xlink" x="0px" y="0px"
	 width="100%" viewBox="0 0 960 1024" enable-background="new 0 0 960 1024" xml:space="preserve">
<path fill="#000000" opacity="1.000000" stroke="none" 
	d="
M605.395752,550.921509 
	C610.508484,552.507935 615.360779,552.406555 620.126404,551.590454 
	C626.014221,550.582031 629.943054,546.815063 632.176208,541.402832 
	C641.383911,519.087036 650.531860,496.746613 659.664856,474.400146 
	C663.948059,463.920013 668.233032,453.438812 672.327515,442.884552 
	C673.405273,440.106476 675.022217,438.975616 677.910339,439.012817 
	C683.572937,439.085724 689.240723,439.088348 694.900513,438.922485 
	C698.100769,438.828674 699.868164,440.444336 700.944092,443.145660 
	C717.513733,484.747162 734.073181,526.352722 750.614563,567.965454 
	C750.909485,568.707458 750.953613,569.549072 751.136902,570.453369 
	C747.476685,573.005859 743.563232,571.293701 739.894104,571.345032 
	C727.309692,571.520996 727.307739,571.391846 722.786621,559.435608 
	C717.382446,545.143921 717.382507,545.132141 702.342041,545.155151 
	C693.013245,545.169373 683.684448,545.247681 674.355652,545.244385 
	C672.565735,545.243713 670.686462,545.662781 668.458984,544.229187 
	C669.810059,537.416992 672.866150,531.002686 675.554016,524.503601 
	C676.339417,522.604675 678.724182,522.990845 680.530884,522.977234 
	C687.527283,522.924500 694.525146,522.995239 701.520264,522.880432 
	C706.748230,522.794556 707.599487,521.652649 705.796997,516.850342 
	C700.473755,502.667480 695.044617,488.524109 689.585815,474.392731 
	C688.967773,472.792755 688.717773,470.422363 686.317139,470.542877 
	C684.075989,470.655426 683.710754,472.937439 683.071472,474.549011 
	C676.749207,490.487762 670.514526,506.461182 664.242249,522.419800 
	C661.015625,530.629395 657.427063,538.714478 654.586853,547.054871 
	C646.745789,570.080505 629.504700,574.971863 612.546997,574.245361 
	C591.202209,573.330811 575.142273,560.895142 570.421387,541.565063 
	C569.353699,537.193481 568.819763,532.734253 568.844299,528.204712 
	C568.904663,517.043701 568.763245,505.880310 568.946594,494.721893 
	C569.012512,490.709534 567.721191,489.102264 563.526672,489.119812 
	C555.126648,489.154999 555.125793,488.956909 555.128235,480.594543 
	C555.128418,479.928192 555.129272,479.261841 555.129089,478.595490 
	C555.125854,468.379150 555.116638,468.306763 565.137512,467.036743 
	C567.889526,466.687958 568.843872,465.352600 568.833862,462.775177 
	C568.810608,456.778412 569.026855,450.777008 568.856812,444.785736 
	C568.738098,440.606720 570.153503,438.576965 574.608643,438.827545 
	C578.759338,439.061005 582.943542,439.010223 587.097168,438.788208 
	C591.095093,438.574493 592.395569,440.360840 592.261841,444.147675 
	C592.068054,449.638489 592.156799,455.140930 592.196411,460.637939 
	C592.240967,466.817535 593.304993,467.777435 599.646362,467.560883 
	C604.304260,467.401825 608.960938,467.116791 613.619385,467.087585 
	C620.269470,467.045898 620.879761,467.638489 620.858032,474.088501 
	C620.845703,477.745758 620.396545,481.401794 620.390198,485.058777 
	C620.384888,488.152039 618.850525,489.113098 616.031494,489.085846 
	C609.701843,489.024658 603.368286,489.191742 597.041992,489.035645 
	C593.415466,488.946167 591.967896,490.351807 592.014526,494.010864 
	C592.176025,506.669556 591.915161,519.337646 592.287170,531.988281 
	C592.543457,540.707275 597.042542,547.039734 605.395752,550.921509 
z"/>
<path fill="#000000" opacity="1.000000" stroke="none" 
	d="
M457.493896,572.857178 
	C426.032532,578.898438 401.364532,565.698303 390.544922,537.373718 
	C388.622284,532.340515 387.646637,527.146179 387.653870,521.743530 
	C387.696198,490.082123 387.760712,458.420502 387.656006,426.759491 
	C387.642548,422.685150 388.998871,420.934326 393.092651,421.069489 
	C397.253235,421.206787 401.427307,421.165253 405.587860,421.004761 
	C409.642853,420.848297 411.223541,422.587799 411.178467,426.657867 
	C411.032745,439.820374 411.118896,452.985413 411.106079,466.149475 
	C411.098694,473.696686 412.030579,474.283752 418.686890,470.881775 
	C452.506531,453.596741 492.952423,474.713898 498.100098,512.344116 
	C501.756042,539.069519 485.222168,563.897949 457.493896,572.857178 
M475.260956,516.217224 
	C475.139465,515.563232 475.024109,514.907959 474.895477,514.255371 
	C472.097870,500.060638 462.257812,490.021149 448.718628,487.545929 
	C435.142548,485.063965 421.887604,490.960724 414.897522,502.591980 
	C407.767700,514.455750 408.701019,529.378357 417.268677,540.504883 
	C425.825653,551.617554 440.347626,555.835815 453.526520,551.036865 
	C467.564240,545.925171 476.117950,532.639343 475.260956,516.217224 
z"/>
<path fill="#000000" opacity="1.000000" stroke="none" 
	d="
M262.336670,470.506897 
	C282.931091,481.737396 293.994476,498.837097 292.844482,521.878296 
	C291.664886,545.511353 278.872131,562.492737 256.785278,570.770752 
	C222.986176,583.438416 188.100693,563.645630 181.965622,528.640625 
	C176.273514,496.162903 202.414017,465.157593 235.456284,464.632080 
	C244.837311,464.482880 253.646637,466.133942 262.336670,470.506897 
M228.635147,487.927032 
	C227.223999,488.425903 225.779358,488.846710 224.406830,489.435547 
	C207.940750,496.500214 199.789383,515.389832 206.105194,531.794067 
	C212.464432,548.311035 230.421326,556.601868 247.510437,550.911316 
	C263.782135,545.492920 273.566345,526.785217 268.611145,510.286926 
	C264.047882,495.093597 249.894653,483.947205 228.635147,487.927032 
z"/>
<path fill="#000000" opacity="1.000000" stroke="none" 
	d="
M343.366699,495.342285 
	C336.524536,501.707642 334.397369,509.648804 334.411255,518.204346 
	C334.436127,533.512756 334.035492,548.824951 334.875488,564.132568 
	C335.284668,571.589539 334.585449,572.067566 327.116089,572.006470 
	C324.119690,571.981934 321.116760,571.777588 318.128876,571.915894 
	C313.406647,572.134644 311.471497,570.547424 311.535370,565.331360 
	C311.804382,543.359985 311.601471,521.382935 311.586060,499.407959 
	C311.579773,490.418213 311.752167,481.425446 311.559052,472.440155 
	C311.477081,468.625732 312.690674,466.899597 316.648682,467.058929 
	C320.969360,467.232819 325.304718,467.125092 329.631592,467.037048 
	C333.275146,466.962952 335.497772,468.006714 334.629456,472.271484 
	C334.269775,474.038055 334.064362,475.951782 335.970490,477.183838 
	C337.544434,477.400543 338.454376,476.294739 339.416168,475.443542 
	C348.029083,467.821381 358.237488,465.281219 369.481140,465.686737 
	C373.086029,465.816772 374.578705,467.277344 374.435822,470.879974 
	C374.264435,475.202026 374.205536,479.543396 374.412720,483.861298 
	C374.612244,488.020020 373.400299,489.451599 368.912354,488.686005 
	C359.664703,487.108459 351.031708,488.930237 343.366699,495.342285 
z"/>
<path fill="#000000" opacity="1.000000" stroke="none" 
	d="
M784.207886,530.000000 
	C784.226196,542.320312 784.043701,554.146057 784.361206,565.958374 
	C784.489624,570.738281 782.573059,572.171997 778.217957,571.947876 
	C774.407898,571.751770 770.567017,571.662354 766.765564,571.915039 
	C761.933350,572.236389 760.549927,570.228027 760.571533,565.493225 
	C760.746155,527.203003 760.699219,488.911713 760.690308,450.620728 
	C760.687744,439.727112 760.643127,439.727142 771.364380,439.656769 
	C784.217712,439.572388 784.208252,439.572357 784.205566,452.584137 
	C784.200256,478.222748 784.206482,503.861389 784.207886,530.000000 
z"/>
<path fill="#000000" opacity="1.000000" stroke="none" 
	d="
M515.782715,544.000000 
	C515.775024,520.361572 515.903992,497.221649 515.656372,474.085815 
	C515.601624,468.971405 517.255127,467.199615 522.249451,467.626801 
	C526.214478,467.965973 530.239868,467.805817 534.226868,467.619537 
	C537.890320,467.448425 539.327271,468.998169 539.254822,472.611267 
	C539.124634,479.100616 539.224304,485.594574 539.224304,492.086609 
	C539.224182,516.556702 539.146606,541.027283 539.293274,565.496521 
	C539.319092,569.804016 538.453552,572.018677 533.519470,571.581726 
	C529.406128,571.217529 525.215881,571.728149 521.059448,571.842834 
	C517.381470,571.944275 515.629578,570.407471 515.734253,566.471680 
	C515.928833,559.152527 515.786133,551.824402 515.782715,544.000000 
z"/>
<path fill="#000000" opacity="1.000000" stroke="none" 
	d="
M517.694885,417.388580 
	C524.642151,413.853271 531.151917,413.808502 537.409729,418.034454 
	C539.291016,419.304932 540.782043,419.247894 542.868713,418.227570 
	C546.923096,416.245087 551.439636,415.614868 555.898132,415.064392 
	C558.463501,414.747681 560.976990,415.134094 562.492249,417.593018 
	C564.005859,420.049347 562.602356,422.100861 561.173950,423.960968 
	C559.965698,425.534332 558.663025,427.119354 557.114624,428.332184 
	C551.764221,432.523071 547.489563,436.923706 545.124146,443.954956 
	C541.790100,453.865143 529.876221,457.831390 520.147278,453.544067 
	C516.747070,452.045715 513.720215,451.604370 510.148254,452.834442 
	C505.884003,454.302948 501.355499,454.738373 496.838165,454.264160 
	C492.360657,453.794189 491.073792,450.951569 493.818176,447.423615 
	C496.797974,443.592987 500.308167,440.127655 504.643219,437.972015 
	C507.143494,436.728699 507.762787,435.266418 508.092468,432.755341 
	C508.925751,426.408844 511.490387,420.936188 517.694885,417.388580 
M516.295776,445.116638 
	C511.695984,447.120697 510.132812,442.776947 507.498566,440.550659 
	C504.563751,442.640533 501.312134,444.034821 500.409973,448.406891 
	C506.713684,449.901947 511.912933,447.817139 517.733521,444.852661 
	C525.838196,442.851349 532.990112,438.959076 539.456543,433.700958 
	C531.971191,437.471252 524.485840,441.241516 516.295776,445.116638 
M554.261292,421.617859 
	C550.386292,418.719818 547.038574,420.622009 543.501404,422.391693 
	C544.004822,425.572418 546.637756,428.125854 544.403320,431.367279 
	C548.563965,428.993683 552.884888,427.203125 554.261292,421.617859 
z"/>
</svg>